
<svg width="71px" height="60px" viewBox="0 0 71 60" version="1.1" xmlns="http://www.w3.org/2000/svg" xmlns:xlink="http://www.w3.org/1999/xlink">
    
    <title>89F9809B-9FFD-414C-921D-E9B20B8A7138</title>
    <desc>Created with sketchtool.</desc>
    <defs>
        <polygon id="path-1" points="0.000204610951 0.0679591837 67.5116493 0.0679591837 67.5116493 59.5917551 0.000204610951 59.5917551"></polygon>
    </defs>
    <g id="Footer" stroke="none" stroke-width="1" fill="none" fill-rule="evenodd">
        <g id="footer-/-375" transform="translate(-152.000000, -459.000000)">
            <g id="Logos/OWL">
                <g transform="translate(152.000000, 459.000000)">
                    <g id="OWL-logo">
                        <g id="Group-3" transform="translate(0.000000, 0.136327)">
                            <mask id="mask-2" fill="white">
                                <use xlink:href="#path-1"></use>
                            </mask>
                            <g id="Clip-2"></g>
                            <path d="M62.6314735,0.0676734694 L4.88023718,0.0676734694 C2.18939856,0.0676734694 -0.000143227666,2.25093878 -0.000143227666,4.93502041 L-0.000143227666,54.7242041 C-0.000143227666,57.4082857 2.18939856,59.5917551 4.88023718,59.5917551 L62.6314735,59.5917551 C65.3223121,59.5917551 67.5116493,57.4082857 67.5116493,54.7242041 L67.5116493,4.93502041 C67.5116493,2.25093878 65.3223121,0.0676734694 62.6314735,0.0676734694" id="Fill-1" fill="#FFFFFF" mask="url(#mask-2)"></path>
                        </g>
                        <path d="M70.6954366,3.50128571 L70.4247363,3.50128571 L70.1374625,4.28597959 L69.839549,3.50128571 L69.5704856,3.50128571 L69.380402,4.79006122 L69.6335058,4.79006122 L69.7558631,3.99985714 L70.0617565,4.79006122 L70.2094856,4.79006122 L70.5192666,3.977 L70.6555375,4.79006122 L70.9301254,4.79006122 L70.6954366,3.50128571 Z M68.5758718,3.73353061 L68.8257017,3.73353061 L68.8257017,4.79006122 L69.0935375,4.79006122 L69.0935375,3.73353061 L69.3427536,3.73353061 L69.3427536,3.50128571 L68.5758718,3.50128571 L68.5758718,3.73353061 Z" id="Fill-4" fill="#03060D"></path>
                        <path d="M29.8835317,43.1076735 L29.8816902,41.9680816 C29.8816902,41.3629796 29.4096527,40.9874694 28.6491138,40.9874694 L24.0981571,40.9874694 L24.0981571,45.7719592 L25.7321801,45.7719592 L25.7321801,42.2158367 L28.2092003,42.2158367 C28.2548285,42.2158367 28.2840879,42.2178776 28.3014798,42.2201224 C28.3022983,42.2331837 28.3022983,42.2521633 28.3022983,42.2703265 L28.3022983,42.9697143 C28.3022983,42.9823673 28.3020937,42.9880816 28.3014798,42.9921633 L28.3004568,42.9937959 C28.2808141,43.008898 28.2405058,43.0107347 28.2092003,43.0107347 L26.4747133,43.0107347 L26.4747133,43.9731837 L28.4884942,45.7719592 L30.7324625,45.7719592 L28.6691657,43.9760408 C29.254353,43.9513469 29.8835317,43.6699184 29.8835317,43.1076735 L29.8835317,43.1076735 Z M18.290889,42.1819592 L18.290889,45.7719592 L23.3777219,45.7719592 L23.3777219,44.5117551 L19.9310504,44.5117551 L19.9310504,43.9095102 L22.2556354,43.9095102 L22.2556354,42.8135918 L19.9310504,42.8135918 L19.9310504,42.2421633 L23.3777219,42.2421633 L23.3777219,40.9874694 L19.1269294,40.9874694 L18.290889,42.1819592 Z M54.3813963,40.9874694 L51.1051657,40.9874694 C51.0186153,40.9874694 50.9312464,40.9929796 50.844696,41.0037959 L50.7957939,41.0097143 L50.6531801,41.2270612 L50.6531801,41.2260408 L49.7594395,42.5854286 L49.7594395,44.6874694 C49.7594395,45.3260408 50.3127075,45.7719592 51.1051657,45.7719592 L54.3813963,45.7719592 C55.1538026,45.7719592 55.7361254,45.3060408 55.7361254,44.6874694 L55.7361254,43.8654286 L54.0953501,43.8654286 L54.0953501,44.5117551 L51.390598,44.5117551 L51.390598,42.2421633 L54.0953501,42.2421633 L54.0953501,42.8003265 L55.7361254,42.8003265 L55.7361254,42.0778776 C55.7361254,41.4160408 55.2041369,40.9874694 54.3813963,40.9874694 L54.3813963,40.9874694 Z M10.4252349,41.0648163 C10.2552032,41.0129796 10.0643012,40.9874694 9.85866715,40.9874694 L6.22948271,40.9874694 C5.39896686,40.9874694 4.88273343,41.4029796 4.88273343,42.0719592 L4.88273343,44.6874694 C4.88273343,45.0793061 5.08304755,45.4001224 5.44582277,45.5913469 L5.51498127,45.6278776 L6.51532421,44.6201224 L6.51532421,42.2421633 L9.57343948,42.2421633 L9.57343948,44.5117551 L7.32558357,44.5117551 L6.06129251,45.7719592 L9.85866715,45.7719592 C10.6564452,45.7719592 11.2140101,45.3260408 11.2140101,44.6874694 L11.2140101,42.2072653 L10.4620648,41.0758367 L10.4252349,41.0648163 Z M43.8177421,40.9874694 L43.8177421,42.2421633 L45.9041599,42.2421633 L45.9041599,45.7719592 L47.5447305,45.7719592 L47.5447305,42.2421633 L49.1926671,42.2421633 L50.0256383,40.9874694 L43.8177421,40.9874694 Z M16.5717478,40.9874694 L14.7412983,43.9001224 L12.9444049,40.9874694 L11.0885836,40.9874694 L14.1180533,45.7719592 L15.2372752,45.7719592 L18.3823501,40.9874694 L16.5717478,40.9874694 Z M40.7086787,40.9874694 L37.4885115,45.7719592 L39.2708775,45.7719592 L41.2674712,42.6903265 L43.2479006,45.7719592 L45.08367,45.7719592 L41.9480072,40.9874694 L40.7086787,40.9874694 Z M61.0003559,40.9874694 L61.0003559,42.6693061 L58.0598919,42.6693061 L58.0598919,40.9874694 L56.4191167,40.9874694 L56.4191167,45.7719592 L58.0598919,45.7719592 L58.0598919,43.9242041 L61.0003559,43.9242041 L61.0003559,45.7719592 L62.6325375,45.7719592 L62.6325375,40.9874694 L61.0003559,40.9874694 Z M37.1860965,40.9874694 L36.1575173,43.4227755 L35.0865836,40.9874694 L33.9630648,40.9874694 L32.9005202,43.3917551 L31.8891282,40.9874694 L30.1802176,40.9874694 L32.2965086,45.7719592 L33.3672378,45.7719592 L34.4508573,43.3629796 L35.513402,45.7719592 L36.6612695,45.7719592 L38.7583271,40.9874694 L37.1860965,40.9874694 Z" id="Fill-6" fill="#03060D"></path>
                        <path d="M41.8348983,49.8959796 L43.0627686,48.1223061 L35.8447081,48.1125102 C34.4474199,48.1125102 33.6381836,48.4178163 33.6381836,49.9796531 L33.6381836,53.4078163 C33.6381836,53.5188367 33.6435035,53.6223061 33.6516879,53.7210816 L34.624613,55.1263878 C34.9566965,55.2372041 35.3651,55.2747551 35.8447081,55.2747551 L40.8556303,55.2747551 C42.2531231,55.2747551 43.0627686,54.9692449 43.0627686,53.4078163 L43.0627686,50.7165918 L38.7368839,50.7165918 L37.5395006,52.4461837 L40.6786418,52.4461837 L40.6794602,53.4192449 L36.0554573,53.4192449 L36.0554573,49.8959796 L41.8348983,49.8959796 Z M57.2410798,53.4192449 L57.2410798,52.4433265 L60.3785841,52.4433265 L60.3785841,50.6976122 L57.2410798,50.6976122 L57.2410798,49.9063878 L62.6237801,49.9063878 L62.6237801,48.1298571 L55.017368,48.1298571 L55.017368,55.2574082 L62.7005092,55.2574082 L62.7005092,53.4192449 L57.2410798,53.4192449 Z M51.2281778,53.4147551 L46.8001922,53.4147551 L46.8001922,48.1257755 L44.535149,48.1257755 L44.535149,53.4078163 C44.535149,54.9582245 45.2901634,55.2616939 46.5939444,55.2616939 L51.4350395,55.2616939 C52.749051,55.2616939 53.5093853,54.9582245 53.5093853,53.4078163 L53.5093853,48.1257755 L51.2281778,48.1257755 L51.2281778,53.4147551 Z M7.17666772,48.1351633 L4.89832478,48.1351633 L4.89832478,55.2627143 L12.4271893,55.2627143 L12.4271893,53.4180204 L7.17666772,53.4180204 L7.17666772,48.1351633 Z M26.7695986,48.1278163 L21.968198,55.2604694 L24.6260942,55.2604694 L27.6021605,50.6663878 L30.5546965,55.2604694 L33.2923911,55.2604694 L28.6174401,48.1278163 L26.7695986,48.1278163 Z M15.974734,52.4837347 L19.4402297,52.4837347 L19.4402297,50.8496531 L15.974734,50.8496531 L15.974734,49.9982245 L21.1133334,49.9982245 L21.1133334,48.1278163 L13.5290193,48.1276122 L13.5290193,55.2604694 L20.6572556,55.2604694 L21.9577628,53.381898 L15.974734,53.381898 L15.974734,52.4837347 Z" id="Fill-8" fill="#F79D19"></path>
                        <path d="M3.30309597,36.3406939 L3.30309597,5.65008163 C3.30309597,4.78538776 4.01227752,4.07885714 4.87860029,4.07885714 L31.976047,4.07885714 C31.7417674,4.61906122 31.3419576,4.76477551 31.1954562,4.8415102 C30.8920182,4.97579592 30.5599346,5.04028571 30.2401277,5.11844898 C29.970655,5.18436735 29.6942256,5.26069388 29.4306867,5.36008163 C29.1759461,5.45538776 28.893583,5.56742857 28.6797646,5.74355102 C28.5524965,5.8482449 28.4405744,5.97130612 28.3386781,6.1015102 C28.2576522,6.20579592 28.1858337,6.31538776 28.117289,6.42742857 C28.0419922,6.52436735 27.9892026,6.60253061 27.9679231,6.63640816 C28.1850153,5.95008163 28.2136608,5.28314286 28.1915628,5.11212245 C28.1463438,5.3882449 27.4887242,5.99926531 27.1073294,6.32742857 C26.3373784,6.97620408 26.44173,7.68436735 26.44173,7.68436735 C26.3760499,7.70967347 26.3068914,7.72069388 26.2393697,7.76783673 C25.9428885,7.99110204 25.7965916,8.10844898 25.4626666,8.02334694 C25.2807674,7.96314286 25.2296147,7.92130612 25.1467473,7.88395918 C25.0972314,7.86089796 25.0571277,7.84008163 25.0233669,7.8182449 C25.0233669,7.8182449 25.1921709,8.18110204 25.777972,8.5504898 C25.8643179,8.59946939 25.9070816,8.63640816 25.9500499,8.69620408 C25.8999202,8.80293878 25.7094274,9.19253061 25.6846695,9.25559184 C25.654387,9.33334694 25.5015427,9.656 25.7523957,10.060898 C25.8618625,10.2372245 26.1145571,10.6694694 26.1145571,10.6694694 C26.1145571,10.6694694 26.1775772,10.7355918 26.22873,10.783551 C26.22873,10.783551 26.1446349,10.406 26.1667329,10.2129388 C26.1970153,10.0617143 26.2131795,9.83987755 26.5651104,9.65273469 C26.566338,9.70844898 26.5489461,9.80089796 26.5436262,9.92804082 C26.5387156,10.0421224 26.5479231,10.183551 26.6027588,10.3066122 C26.6027588,10.3066122 26.6385657,10.3943673 26.7099749,10.5170204 C26.7361651,10.5745714 26.8425628,10.8127347 26.6524793,11.0551837 C26.595802,11.1278367 26.5530383,11.1978367 26.468534,11.266 C26.3954879,11.3343673 26.3547703,11.3549796 26.3330816,11.4364082 C26.3866896,11.4729388 26.4181997,11.5057959 26.5264389,11.5506939 C26.5673611,11.5670204 26.7592862,11.6404898 26.8141219,11.6604898 C26.9436406,11.7092653 27.1142862,11.7782449 27.1161277,11.9143673 C27.1122401,11.9853878 27.0547444,12.0349796 27.0156637,12.0629388 C26.9031277,12.1174286 26.7981622,12.1715102 26.6000988,12.2637551 C26.4220873,12.3647755 26.3715484,12.3833469 26.3715484,12.3833469 C26.2528741,12.4223265 26.1247876,12.4547755 25.9921997,12.4749796 C25.6326983,12.5372245 24.9638251,12.6751837 24.1492689,12.6962041 C23.9720758,12.6974286 23.8531968,12.7176327 23.534413,12.5639592 C23.534413,12.5639592 22.6130499,12.0472245 21.7841709,12.1831429 C21.3653323,12.2296735 20.7713467,12.3517143 20.2497934,12.5362041 C20.0030326,12.6133469 19.6850671,12.7015102 19.1657646,12.7013061 C18.9521507,12.6925306 18.9275974,12.7098776 18.6787905,12.5921224 C18.6787905,12.5921224 18.5811911,12.5168163 18.176266,12.5415102 C18.0555455,12.541102 17.8920614,12.5419184 17.660851,12.5694694 C17.586168,12.6817143 17.5481104,12.7288571 17.5481104,12.7288571 C17.5481104,12.7288571 17.4797703,12.7053878 17.3780787,12.6264082 C17.2806839,12.5655918 17.1276349,12.4555918 16.647413,12.4582449 C16.647413,12.4582449 16.4168164,12.4743673 16.3267876,12.4378367 C16.3267876,12.4378367 16.4014706,12.183551 16.4084274,12.041102 C16.4098597,11.9668163 16.4348222,11.9592653 16.3558424,11.8225306 C16.277681,11.686 16.1444793,11.4768163 16.1444793,11.4768163 C16.1444793,11.4768163 16.128315,11.4137551 16.027851,11.3913061 C16.027851,11.3913061 15.9386406,11.3831429 15.731779,11.2255918 C15.5721824,11.1198776 15.4557588,11.0019184 15.1961075,11.0198776 C15.1357473,11.0249796 15.0440816,11.0453878 14.9423899,10.9594694 C14.8627963,10.9225306 14.7439173,10.8615102 14.4736262,10.9927347 C14.3430844,11.0421224 14.2203179,11.1080408 13.8575427,11.1000816 C13.4556867,11.110898 9.87622277,11.2002857 9.87622277,11.2002857 C9.87622277,11.2002857 9.76962046,11.2033469 9.68511614,11.1092653 C9.64910461,11.0790612 9.57953689,11.006 9.41073285,11.0849796 C9.40398069,11.2343673 9.38556571,11.6000816 9.38556571,11.6000816 L8.96938703,11.6043673 C8.96938703,11.6043673 8.86298934,11.3515102 8.5110585,11.488449 C8.49305274,11.6170204 8.48016225,11.6704898 8.48016225,11.6704898 L8.44640144,11.7315102 C8.44640144,11.7315102 8.28639568,11.7433469 8.22317089,11.7698776 C8.21969251,12.0355918 8.22030634,12.1102857 8.24506427,12.3686531 C8.43453401,12.4064082 8.4680902,12.4123265 8.4680902,12.4123265 L8.51371844,12.7976327 C8.51371844,12.7976327 8.65837839,13.0204898 8.95731499,13.0129388 C9.11384236,13.0231429 9.2939,12.9751837 9.41666657,13.1745714 C9.41666657,13.1745714 9.8917732,13.9072245 10.1540844,14.1374286 C10.3218654,14.2929388 10.5432545,14.5919184 11.9016666,14.850898 C12.0911363,14.8806939 12.6949432,14.9849796 13.3106176,14.983551 C13.3834591,15.0519184 13.8401507,15.5868163 13.8401507,15.5868163 C13.8401507,15.5868163 13.9035801,15.7374286 14.2213409,15.7964082 C14.5720441,15.876 15.5738193,16.0941633 15.976289,16.1190612 C16.168828,16.1351837 16.2300066,16.1657959 16.4076089,16.018449 C16.5326262,15.9092653 16.6390239,15.8468163 16.6869029,15.6417143 L16.7104331,15.4706939 L16.7810239,15.4192653 C16.8413841,15.3692653 17.0228741,15.3145714 17.5974216,14.7353878 C17.5974216,14.7353878 17.6477559,14.8766122 17.6735369,14.9113061 C17.6962487,14.9457959 17.7163006,15.0488571 18.0187156,15.051102 C18.0187156,15.051102 18.829998,15.0321224 19.4722718,15.3843673 C19.5913553,15.4486531 19.7171911,15.4878367 20.073828,15.8049796 C20.1908654,15.9119184 20.6041795,16.3372245 21.4527012,16.4137551 C22.1731363,16.4762041 22.8929576,16.5241633 23.1851421,16.5592653 C23.4853063,16.5829388 23.5597847,16.5982449 23.9190816,16.471102 C24.0072689,16.4333469 24.2331594,16.378449 24.2634418,16.0645714 C24.2718308,15.9619184 24.2632372,15.7774286 24.2656925,15.7415102 C24.2847213,15.6490612 24.2904504,15.6064082 24.2904504,15.6064082 C24.2904504,15.6064082 24.3686118,15.5764082 24.4940383,15.616 C24.6524072,15.6755918 26.2761997,16.248449 26.2761997,16.248449 C26.2761997,16.248449 26.4429576,16.2229388 26.382802,15.9694694 C26.344949,15.7502857 26.3138481,15.5349796 26.3138481,15.5349796 C26.3138481,15.5349796 26.2815196,15.3833469 26.434364,15.3678367 C26.5018856,15.3631429 26.5374879,15.3623265 27.0377617,15.4553878 C27.2980268,15.4906939 27.5587012,15.5262041 28.0833236,15.4590612 C28.1674187,15.440898 28.2791363,15.4064082 28.4088597,15.3613061 L28.4092689,15.3615102 C28.6484591,15.2862041 28.680583,15.2441633 28.7548568,15.2906939 C28.7978251,15.3402857 28.8311767,15.5133469 28.8495916,15.9064082 C28.8637098,16.0196735 28.8700527,16.1815102 29.0302631,16.3415102 C29.1937473,16.5172245 30.1325023,17.503551 30.1325023,17.503551 L30.4830009,17.8829388 C30.4830009,17.8829388 30.6874072,18.1190612 30.9529922,18.1070204 C31.039338,18.1129388 31.1391882,18.1392653 31.3839029,18.1992653 C31.5087156,18.2127347 31.576851,18.2674286 31.9551767,18.133551 C31.9551767,18.133551 32.1569231,17.9982449 32.4949403,18.0980408 C32.8006291,18.1717143 33.9489058,18.416 34.1052285,18.4496735 L34.192802,18.6437551 L34.2247213,18.7323265 C34.2247213,18.7323265 34.3208885,19.0127347 34.3706089,19.1119184 C34.4272862,19.2290612 34.7859692,19.8923265 34.7859692,19.8923265 C34.7859692,19.8923265 34.4946032,20.0439592 33.826753,20.3225306 C33.2432026,20.6015102 30.1617617,21.8498776 27.3356752,25.2455918 C27.3356752,25.2455918 27.3207386,25.2633469 27.294753,25.2945714 L27.2824764,25.2986531 C27.2824764,25.2986531 26.5102746,26.2066122 26.4707847,26.8874286 C26.4824476,26.9894694 26.4891997,27.1025306 26.7017905,27.4013061 C26.9031277,27.6662041 27.0813438,27.9370204 27.3041651,28.0262041 C27.4353207,28.0872245 27.4412545,28.1439592 28.231462,28.166 C29.0216695,28.1880408 29.2266896,28.1978367 29.2266896,28.1978367 C29.2266896,28.1978367 29.6191334,28.2115102 30.0954677,28.0829388 C30.6004476,27.9482449 30.8787184,27.8782449 30.997802,27.8490612 C31.1565801,27.8025306 31.3550527,27.7498776 31.8536896,27.5700816 C32.2107357,27.4366122 34.3990499,26.6368163 36.4298135,26.8700816 L36.5220931,27.0051837 C36.5220931,27.0051837 36.5626061,27.1017143 36.8191882,27.1506939 C37.0804764,27.2278367 38.1244014,27.5598776 38.6441133,27.8898776 C38.8206925,28.0076327 38.9811075,28.1198776 39.1758971,28.3394694 C39.3307876,28.5253878 39.5660902,28.7502857 39.9274331,29.1839592 C39.9274331,29.1839592 40.1860614,29.493551 40.3528193,29.7531429 C40.4676061,29.911102 40.634364,30.1368163 40.7430124,30.2433469 C40.7430124,30.2433469 40.8577991,30.3555918 40.8762141,30.5202857 C40.8995398,30.6390612 40.9181594,30.7468163 41.0728452,30.9041633 C41.2154591,31.0445714 41.3310643,31.2080408 41.516851,30.9913061 C41.5559317,30.9000816 41.5729144,30.9451837 41.5741421,30.3841633 C41.5880556,29.9870204 41.5745513,29.7321224 41.6539403,29.6523265 C41.6985455,29.5441633 41.7891882,29.4639592 41.7351709,29.1466122 C41.7108222,28.9653878 41.6928164,28.863551 41.4701997,28.7466122 C41.4701997,28.7466122 41.5641161,28.3151837 41.3687127,28.078449 C41.3214476,28.0194694 41.2396032,27.9619184 41.1284994,27.9496735 C41.1284994,27.9496735 41.061387,27.5972245 40.6509375,27.4002857 C40.4477588,27.2725306 40.3190585,27.2290612 40.0229865,26.6619184 C40.0229865,26.6619184 39.8930585,26.3704898 39.8318798,26.1762041 C39.8478395,26.1588571 40.017462,26.0080408 40.0094821,25.4043673 C40.1870844,25.5113061 40.3695974,25.6131429 40.5543611,25.7062041 C40.5543611,25.7062041 41.5225801,26.193551 41.7507213,26.3094694 C42.3334533,26.6051837 43.3528251,27.0772245 44.7494994,27.4251837 C44.7494994,27.4251837 45.1910499,27.5147755 45.2585715,27.5325306 C45.3348914,27.5441633 45.4466089,27.5649796 45.559145,27.670898 C45.6411939,27.741102 46.0653524,28.111102 46.3479202,28.2874286 C46.4743697,28.3606939 46.7986781,28.5519184 47.4704159,28.6868163 C47.7437761,28.7429388 48.0944793,28.7515102 48.4773063,28.9662041 C48.4773063,28.9662041 50.1150124,29.8090612 50.7216839,30.0792653 C50.8896695,30.1706939 51.5755254,30.4845714 53.1219749,31.4923265 C53.1219749,31.4923265 53.7640441,31.8862041 53.976021,32.0239592 C54.0439519,32.0713061 54.2086637,32.2064082 54.5364504,32.5029388 C54.8806061,32.7992653 55.4958712,33.3578367 55.4958712,33.3578367 L55.6077934,33.4929388 L55.3021046,33.4929388 L55.245632,33.9131429 C55.245632,33.9131429 55.9204389,34.3766122 56.414779,34.7417143 C56.414779,34.7417143 57.0097876,35.1849796 57.6316003,35.8725306 C57.82373,36.0547755 58.2963813,36.5002857 58.5938856,36.7713061 C58.5938856,36.7713061 58.889753,37.0562041 58.7991104,37.1547755 C58.6270326,37.3427347 58.3868193,37.6166122 58.3847732,37.9119184 L4.87860029,37.9119184 C4.01227752,37.9119184 3.30309597,37.2047755 3.30309597,36.3406939" id="Fill-10" fill="#03060D"></path>
                        <path d="M31.3673703,6.49267347 C31.3657334,6.49328571 31.3640965,6.49369388 31.3624597,6.49430612 L31.3645058,6.49226531 L31.3673703,6.49267347 Z" id="Fill-12" fill="#F79E18"></path>
                        <path d="M14.8270507,14.7857755 C14.8270507,14.7857755 14.5207481,14.7129184 14.461411,14.6943469 C14.3836588,14.6716939 14.3390536,14.6772041 14.1851862,14.539449 C14.0855406,14.4533265 13.9177597,14.3343469 13.8741775,14.1349592 C13.8217971,13.9280204 13.7704398,13.7490408 13.7704398,13.7490408 C13.7704398,13.7490408 13.8508519,13.7143469 14.0820622,13.7165918 C14.1956213,13.719449 14.2469787,13.7235306 14.2469787,13.7235306 C14.2469787,13.7235306 14.3216617,13.9467959 14.3926617,14.032102 C14.4747107,14.1251633 14.5514398,14.1959796 14.6040248,14.3400612 C14.6263274,14.4000612 14.6424916,14.4727143 14.7210622,14.5353673 C14.7583014,14.5667959 14.8115003,14.5839388 14.8172294,14.7227143 C14.8245954,14.7633265 14.8270507,14.7857755 14.8270507,14.7857755" id="Fill-14" fill="#03060D"></path>
                        <path d="M37.4845216,24.7461224 C37.3858991,24.8465306 37.3414986,24.9132653 37.2152536,25.0581633 C36.4328213,25.1253061 35.0162997,25.0038776 35.0162997,25.0038776 C35.0046369,24.8657143 35.1210605,24.8704082 35.3256715,24.8077551 C36.0512219,24.574898 36.991,24.1079592 37.2672248,23.9506122 C37.5487695,23.7659184 37.6870865,23.6983673 37.6870865,23.6983673 L37.8599827,23.78 L37.8605965,23.8626531 L37.7505159,24.007551 C37.5911239,24.1914286 37.5864179,24.2857143 37.5870317,24.3687755 C37.6109712,24.5844898 37.5452911,24.6736735 37.4845216,24.7461224" id="Fill-16" fill="#03060D"></path>
                        <path d="M64.2056274,36.3406939 C64.2056274,37.2047755 63.4964458,37.9119184 62.6303277,37.9119184 L60.0264487,37.9119184 C60.1490107,37.8551837 60.2333104,37.7690612 60.2942844,37.6594694 C60.4090712,37.4515102 60.5713277,36.6596735 60.5649847,36.5786531 C60.5588464,36.4968163 60.5218118,36.386 60.3969991,36.2719184 C60.2732095,36.1839592 59.8697167,35.931102 59.725466,35.5988571 C59.5728262,35.296 59.4838205,35.1029388 59.4838205,35.1029388 C59.4838205,35.1029388 59.7019357,34.8880408 59.6518061,34.4592653 C59.639734,34.3945714 59.6458723,34.3362041 59.5051,33.9217143 C59.3806965,33.5600816 59.2693882,33.1551837 58.8742844,32.690898 C58.8006245,32.6057959 58.7772988,32.5792653 58.7421058,32.488449 C58.727783,32.456 58.7328983,32.4296735 58.5855784,32.3531429 C58.4505352,32.2943673 58.3676677,32.2270204 58.0791663,32.2237551 C57.9523075,32.3823265 57.8174689,32.5349796 57.8174689,32.5349796 C57.8174689,32.5349796 57.6198147,32.5117143 57.4988896,32.4943673 C57.4250251,32.4825306 57.3695755,32.4470204 57.1604631,32.590898 C57.0630683,32.6527347 56.998002,32.6931429 56.9560568,32.7192653 C56.9560568,32.7192653 56.9212729,32.6957959 56.8498637,32.6462041 C56.4095409,32.3343673 55.869368,31.8243673 55.3508839,31.321102 C54.2635813,30.2649796 53.3254401,29.1237551 53.3254401,29.1237551 C53.07827,28.8694694 52.789564,28.3657959 52.2514372,27.9057959 C51.8763853,27.5853878 51.318002,27.1927347 50.4801202,26.8264082 C50.290855,26.743551 50.3051778,26.6855918 48.1408032,26.348449 C47.910002,26.3123265 47.5061,26.1053878 47.1314573,25.7266122 C46.6958406,25.2727347 45.4117023,24.323551 44.6779674,23.6294694 C44.6779674,23.6294694 43.7281634,22.8251837 42.9956562,22.1837551 C41.6401086,21.0388571 40.9679617,20.5755918 40.9679617,20.5755918 C40.7273392,20.316 40.4367916,19.8937551 40.3072729,19.2398776 C40.2276793,19.0072245 40.0809732,18.4141633 39.5764026,17.8145714 C39.5764026,17.8145714 38.9922383,17.1719184 38.0917455,16.7200816 C37.972662,16.6545714 37.7692787,16.5647755 37.4318752,16.2641633 C37.4633853,16.1100816 37.449881,15.8592653 37.449881,15.8592653 C37.4214401,15.563551 37.3733565,14.9749796 37.342051,14.9098776 C37.1040885,14.7531429 37.0171288,14.7002857 37.0171288,14.7002857 L37.0140597,14.3651837 C37.0140597,14.3651837 37.1212758,14.2774286 37.2467023,14.1778367 C37.311564,14.1141633 37.376221,14.1204898 37.3588291,13.868449 C37.3600568,13.6249796 37.3698781,13.3423265 37.3698781,13.3423265 C37.3698781,13.3423265 37.3964775,13.1780408 37.1828637,12.9245714 C36.9766159,12.6302857 36.2001173,11.5433469 35.8647599,11.0843673 C35.8647599,11.0843673 35.6904314,10.8490612 35.6249559,10.7713061 C35.5752354,10.7186531 35.5322671,10.6429388 35.3247916,10.6019184 C35.1169069,10.5466122 34.9794084,10.5129388 34.8877427,10.4880408 C34.8402729,10.4778367 34.7385813,10.458449 34.6055841,10.5200816 C34.5560683,10.5417143 34.4451692,10.600898 34.3058291,10.558449 C34.1638291,10.5245714 33.8317455,10.4298776 33.8317455,10.4298776 C33.7535841,10.3296735 33.5708666,10.0796735 33.4894314,9.96497959 C33.4411432,9.90681633 33.4196591,9.86967347 33.3124429,9.80946939 C33.1712614,9.71906122 32.8850107,9.54273469 32.8850107,9.54273469 L31.9392988,9.80844898 C31.9392988,9.80844898 31.8955121,9.82334694 31.829832,9.83395918 C31.7690625,9.83906122 31.7383709,9.84355102 31.7383709,9.84355102 L31.6156043,9.2004898 L32.1375669,8.81089796 C32.1375669,8.81089796 32.461466,8.57702041 32.6885841,8.36130612 L32.9905899,8.07436735 C32.6623939,8.07436735 32.2278003,8.08477551 31.983904,8.02518367 C31.983904,8.02518367 31.9274314,8.01110204 31.8973536,7.986 L32.009685,7.86640816 C33.1757628,6.73293878 33.2817513,6.05416327 33.3114199,5.84579592 C33.0798003,6.10681633 32.6930856,6.19620408 32.4234084,6.27028571 C32.1426821,6.31804082 31.9568954,6.35089796 31.8179646,6.3782449 C32.5453565,5.67497959 32.6705784,4.54232653 32.690221,4.07885714 L62.6303277,4.07885714 C63.4964458,4.07885714 64.2056274,4.78538776 64.2056274,5.65008163 L64.2056274,36.3406939 Z" id="Fill-18" fill="#F79E18"></path>
                    </g>
                </g>
            </g>
        </g>
    </g>
</svg>